# xmcd
# 
# Track frame offsets:
#     150
#     20887
#     34100
#     41587
#     55800
#     70112
#     78955
#     97152
#     113340
#     130420
#     147325
# 
# Disc length: 2264
# 
# Revision: 3
# Processed by: cddbd v1.5.2PL0 Copyright (c) Steve Scherf et al.
# Submitted via: fre:ac v1.0.31
# 
DISCID=9508d60b
DTITLE=Christmas - Amy Grant A Christmas Album
DYEAR=1983
DGENRE=Christmas
TTITLE0=Tennessee Christmas
TTITLE1=Hark! The Herald Angels Sing
TTITLE2=Preiset Dem Konig (Praise the King)
TTITLE3=Emmanual
TTITLE4=Little Town
TTITLE5=Christmas Hymn
TTITLE6=Love has Come
TTITLE7=Sleigh Ride
TTITLE8=The Christmas Song (Chestnuts)
TTITLE9=Heirlooms
TTITLE10=A Mighty Fortress - Angles We Have Heard on High
EXTD=
EXTT0=
EXTT1=
EXTT2=
EXTT3=
EXTT4=
EXTT5=
EXTT6=
EXTT7=
EXTT8=
EXTT9=
EXTT10=
PLAYORDER=
